PathFileType	4	(X/Y/Z)	E:\Qualisys_Data\Carbon_Farble_Plate\Data\Amateur_Runner\S14\T1\S14T1V22_c3d.trc
DataRate	CameraRate	NumFrames	NumMarkers	Units	OrigDataRate	OrigDataStartFrame	OrigNumFrames
200.000000	200.000000	4	39	mm	200.000000	266	304
Frame#	Time	LSHO			RSHO			LICST			RICST			LASIS			LHEEL			RASIS			LTROC			RTROC			SACR			LTH1			LSK4			LTH2			LTH3			RHM5			LSK2			LTH4			RTH1			LTOE			RTH2			RTH3			RTH4			LLEP			RLEP			LSK1			LSK3			RSK1			LHM5			RSK2			LFT1			RSK3			RSK4			LLME			RLME			RTOE			RHEEL			RFT1			RFT2			LFT2			
		X1	Y1	Z1	X2	Y2	Z2	X3	Y3	Z3	X4	Y4	Z4	X5	Y5	Z5	X6	Y6	Z6	X7	Y7	Z7	X8	Y8	Z8	X9	Y9	Z9	X10	Y10	Z10	X11	Y11	Z11	X12	Y12	Z12	X13	Y13	Z13	X14	Y14	Z14	X15	Y15	Z15	X16	Y16	Z16	X17	Y17	Z17	X18	Y18	Z18	X19	Y19	Z19	X20	Y20	Z20	X21	Y21	Z21	X22	Y22	Z22	X23	Y23	Z23	X24	Y24	Z24	X25	Y25	Z25	X26	Y26	Z26	X27	Y27	Z27	X28	Y28	Z28	X29	Y29	Z29	X30	Y30	Z30	X31	Y31	Z31	X32	Y32	Z32	X33	Y33	Z33	X34	Y34	Z34	X35	Y35	Z35	X36	Y36	Z36	X37	Y37	Z37	X38	Y38	Z38	X39	Y39	Z39	

267	1.33	2591.31591796875	1426.180908203125	-542.8978271484375	2565.85693359375	1430.764282226562	-242.8546905517578	2572.03759765625	980.0831298828124	-515.4512329101562	2586.66259765625	984.4505004882812	-238.5430297851562	2610.591796875	928.5186767578124	-489.9531555175781	2112.400146484375	194.6975708007812	-405.2452087402344	2615.299560546875	943.2418212890624	-257.8313598632812	2453.682373046875	867.1101684570312	-526.4103393554688	2484.426025390625	886.6937255859375	-201.08447265625	2442.087646484375	985.7852172851562	-380.9322814941406	2491.658935546875	637.0463256835938	-529.8770141601562	2257.40380859375	351.0168151855469	-482.9262390136719	2417.296142578125	653.4896850585938	-507.6735534667969	2479.864013671875	539.9876708984375	-504.7696533203125	2584.735107421875	126.8709259033203	-219.5584869384766	2319.092529296875	425.5265502929688	-500.4188842773438	2403.29541015625	557.2447509765625	-489.2680358886719	2720.858642578125	724.2481689453125	-207.2893676757812	2303.77880859375	42.55851745605469	-420.5658264160156	2655.15185546875	685.3959350585938	-194.7918701171875	2773.7080078125	641.3538818359375	-232.5259246826172	2704.27978515625	597.2743530273438	-210.1046447753906	2431.9775390625	479.2960815429688	-496.5475463867188	2747.05712890625	548.0567016601562	-220.0702972412109	2384.358154296875	372.9655456542969	-496.7740783691406	2317.1806640625	296.8682250976562	-483.3391723632812	2715.10107421875	434.4176940917969	-221.7397918701172	2238.721923828125	50.65655517578125	-482.5452270507812	2644.775390625	482.9580078125	-221.7112731933594	2111.985595703125	171.340576171875	-375.4811401367188	2650.151123046875	354.02783203125	-236.5293731689453	2588.84228515625	404.9093933105469	-234.3800354003906	2175.504150390625	181.4701995849609	-462.7895202636719	2511.101806640625	248.4646301269531	-254.0165252685547	2647.418701171875	87.67342376708984	-278.9760131835938	2451.70263671875	255.0875396728516	-309.5753479003906	2447.88330078125	221.1643676757812	-338.367919921875	2437.148681640625	237.4113159179688	-282.2582092285156	2097.75732421875	168.8547668457031	-428.2063598632812
268	1.335	2611.333740234375	1430.22216796875	-541.3661499023438	2583.3369140625	1434.411254882812	-242.1789855957031	2593.2236328125	983.3193969726562	-514.9608764648438	2607.02685546875	989.3497924804688	-238.4453277587891	2631.49609375	931.8233642578124	-489.1603698730469	2126.268310546875	204.9177856445312	-407.177978515625	2635.94482421875	947.9092407226562	-257.5733947753906	2473.608642578125	872.531494140625	-526.0123291015625	2505.256103515625	891.743408203125	-199.8525848388672	2462.929931640625	989.5972290039062	-380.7218933105469	2507.296142578125	641.8225708007812	-529.8458251953125	2268.55712890625	357.757080078125	-483.985107421875	2432.64599609375	659.0955810546875	-507.5345764160156	2494.016845703125	545.7393188476562	-506.4147338867188	2626.755859375	121.1161880493164	-219.9790344238281	2331.971923828125	432.2135925292969	-502.324951171875	2417.322021484375	563.6961059570312	-489.4591674804688	2741.18115234375	728.3287353515625	-205.3772125244141	2306.93994140625	41.01323699951172	-421.388671875	2676.53369140625	689.6915893554688	-195.6295928955078	2794.55908203125	645.437744140625	-232.6285705566406	2725.226318359375	601.4699096679688	-211.3512115478516	2444.20166015625	484.7665405273438	-498.2292175292969	2769.240966796875	552.096435546875	-221.9884643554688	2395.720947265625	379.971435546875	-498.2707214355469	2328.109375	303.2239990234375	-485.6111450195312	2741.274658203125	436.0754699707031	-221.8433227539062	2242.88232421875	52.35562515258789	-483.1275024414062	2668.1162109375	481.1408081054688	-221.3036499023438	2122.845703125	181.8709716796875	-377.1739196777344	2680.10888671875	352.3717956542969	-236.4700927734375	2616.74267578125	400.0194091796875	-233.6481323242188	2185.822265625	188.2030944824219	-464.34521484375	2548.7255859375	239.1893920898438	-253.6004486083984	2691.42724609375	85.87621307373047	-277.9070434570312	2487.416259765625	243.0127258300781	-309.5286560058594	2485.379150390625	208.4920959472656	-338.0715637207031	2473.77734375	223.8216400146484	-282.5713195800781	2108.789794921875	179.7862091064453	-429.7772827148438
269	1.34	2631.73291015625	1434.306518554688	-540.2777099609375	2600.881591796875	1437.837768554688	-241.7878570556641	2614.082275390625	986.5568237304688	-514.41748046875	2627.559326171875	993.9428100585938	-238.0833129882812	2651.784912109375	935.0023803710938	-488.3333129882812	2139.29296875	214.9054565429688	-409.4870300292969	2656.081298828125	952.1865234375	-256.4449157714844	2491.493408203125	877.56103515625	-525.7546997070312	2526.0791015625	895.828369140625	-198.9423675537109	2483.60400390625	993.6087036132812	-380.2255554199219	2522.444091796875	645.867431640625	-530.5493774414062	2279.797119140625	364.3688049316406	-485.098388671875	2449.3818359375	665.175537109375	-507.9466247558594	2507.867919921875	549.480224609375	-506.9710388183594	2670.327392578125	117.4681243896484	-219.8114471435547	2344.1142578125	438.6840209960938	-502.9686889648438	2431.49560546875	569.1171264648438	-489.8779296875	2763.586181640625	733.0301513671875	-207.6992034912109	2310.544189453125	39.0237922668457	-421.9030151367188	2697.20361328125	693.2803344726562	-195.9124298095703	2815.412109375	649.2655639648438	-233.1424102783203	2745.6884765625	605.9996948242188	-211.2803497314453	2457.55615234375	490.1787719726562	-498.7726135253906	2790.302978515625	556.1389770507812	-222.4559478759766	2406.900634765625	385.8642578125	-499.5203857421875	2337.035400390625	309.5306396484375	-487.1087341308594	2766.47216796875	437.3568115234375	-221.5252380371094	2247.025390625	54.88148880004883	-483.7476196289062	2691.819091796875	478.4484558105469	-220.5195465087891	2134.556640625	192.6652374267578	-378.6430969238281	2709.23046875	351.1455078125	-234.8413238525391	2644.2412109375	394.8959045410156	-233.5242462158203	2196.981689453125	195.4585266113281	-466.6642456054688	2584.562744140625	230.2908630371094	-253.7134857177734	2739.68115234375	88.7235336303711	-278.7489929199219	2521.159912109375	230.7805023193359	-307.1480407714844	2523.419677734375	196.2103729248047	-338.3683776855469	2510.441650390625	210.5126037597656	-282.6834716796875	2120.426513671875	190.7682495117188	-431.9494323730469
270	1.345	2651.726318359375	1438.149536132812	-538.7132568359375	2619.2353515625	1441.06494140625	-241.3600158691406	2635.1513671875	990.2473754882812	-513.3125610351562	2648.94873046875	998.5699462890624	-237.5610198974609	2672.930419921875	938.2086791992188	-488.1595153808594	2154.429443359375	225.3987731933594	-411.9431457519531	2678.3828125	957.0009155273438	-257.3365478515625	2510.98583984375	882.487060546875	-525.340087890625	2546.671875	899.8682250976562	-198.5285949707031	2504.3798828125	996.4107666015624	-379.9354553222656	2538.44482421875	649.8471069335938	-530.9581298828125	2292.1982421875	370.7235107421875	-485.7012939453125	2465.420654296875	670.0123901367188	-507.8252868652344	2521.872314453125	554.0897827148438	-508.4609069824219	2712.689208984375	113.4797668457031	-219.9192657470703	2356.49853515625	444.8388977050781	-503.3033447265625	2446.414794921875	574.670166015625	-490.2989807128906	2784.328369140625	735.9175415039062	-208.5337829589844	2313.9990234375	37.05450057983398	-422.3062438964844	2717.858154296875	697.3978271484375	-196.6953277587891	2835.273193359375	651.8264770507812	-232.8023071289062	2765.677490234375	609.3764038085938	-212.1819305419922	2470.4248046875	495.2767333984375	-500.4098510742188	2810.78271484375	558.8998413085938	-223.4439849853516	2419.416015625	391.7611694335938	-501.3139343261719	2351.81787109375	315.936279296875	-489.3051147460938	2791.86572265625	438.2649230957031	-221.4051208496094	2251.82568359375	57.62327575683594	-484.1708984375	2714.572265625	475.2093811035156	-220.0443878173828	2147.522705078125	203.3158721923828	-380.3335571289062	2739.906982421875	349.008056640625	-235.4143218994141	2671.707763671875	389.4064025878906	-233.0220336914062	2208.662353515625	200.8734893798828	-467.6955261230469	2621.00146484375	221.3421783447266	-253.6523895263672	2784.14599609375	89.2037582397461	-278.5481567382812	2559.6240234375	217.7986297607422	-308.7627868652344	2562.166015625	183.8159790039062	-338.2685852050781	2549.81396484375	196.8712158203125	-281.7470703125	2132.963623046875	202.0482330322266	-433.6291809082031
